<?xml version="1.0" encoding="UTF-8"?> <svg xmlns="http://www.w3.org/2000/svg" width="520" height="100" viewBox="0 0 520 100" fill="none"><path d="M48.2065 3.63397C48.9402 2.14748 51.0598 2.14748 51.7935 3.63397L64.2293 28.8317C64.5206 29.422 65.0837 29.8311 65.7352 29.9258L93.5425 33.9664C95.1829 34.2048 95.838 36.2207 94.6509 37.3778L74.5294 56.9915C74.058 57.451 73.8429 58.113 73.9542 58.7618L78.7042 86.4567C78.9844 88.0905 77.2696 89.3365 75.8023 88.5651L50.9307 75.4893C50.348 75.183 49.652 75.183 49.0693 75.4893L24.1977 88.5651C22.7304 89.3365 21.0156 88.0905 21.2958 86.4567L26.0458 58.7618C26.1571 58.113 25.942 57.451 25.4706 56.9915L5.34907 37.3778C4.16204 36.2207 4.81706 34.2048 6.4575 33.9664L34.2648 29.9258C34.9163 29.8311 35.4794 29.422 35.7707 28.8317L48.2065 3.63397Z" fill="#F8A700"></path><path d="M153.207 3.63397C153.94 2.14748 156.06 2.14748 156.793 3.63397L169.229 28.8317C169.521 29.422 170.084 29.8311 170.735 29.9258L198.543 33.9664C200.183 34.2048 200.838 36.2207 199.651 37.3778L179.529 56.9915C179.058 57.451 178.843 58.113 178.954 58.7618L183.704 86.4567C183.984 88.0905 182.27 89.3365 180.802 88.5651L155.931 75.4893C155.348 75.183 154.652 75.183 154.069 75.4893L129.198 88.5651C127.73 89.3365 126.016 88.0905 126.296 86.4567L131.046 58.7618C131.157 58.113 130.942 57.451 130.471 56.9915L110.349 37.3778C109.162 36.2207 109.817 34.2048 111.457 33.9664L139.265 29.9258C139.916 29.8311 140.479 29.422 140.771 28.8317L153.207 3.63397Z" fill="#F8A700"></path><path d="M258.207 3.63397C258.94 2.14748 261.06 2.14748 261.793 3.63397L274.229 28.8317C274.521 29.422 275.084 29.8311 275.735 29.9258L303.543 33.9664C305.183 34.2048 305.838 36.2207 304.651 37.3778L284.529 56.9915C284.058 57.451 283.843 58.113 283.954 58.7618L288.704 86.4567C288.984 88.0905 287.27 89.3365 285.802 88.5651L260.931 75.4893C260.348 75.183 259.652 75.183 259.069 75.4893L234.198 88.5651C232.73 89.3365 231.016 88.0905 231.296 86.4567L236.046 58.7618C236.157 58.113 235.942 57.451 235.471 56.9915L215.349 37.3778C214.162 36.2207 214.817 34.2048 216.457 33.9664L244.265 29.9258C244.916 29.8311 245.479 29.422 245.771 28.8317L258.207 3.63397Z" fill="#F8A700"></path><path d="M363.207 3.63397C363.94 2.14748 366.06 2.14748 366.793 3.63397L379.229 28.8317C379.521 29.422 380.084 29.8311 380.735 29.9258L408.543 33.9664C410.183 34.2048 410.838 36.2207 409.651 37.3778L389.529 56.9915C389.058 57.451 388.843 58.113 388.954 58.7618L393.704 86.4567C393.984 88.0905 392.27 89.3365 390.802 88.5651L365.931 75.4893C365.348 75.183 364.652 75.183 364.069 75.4893L339.198 88.5651C337.73 89.3365 336.016 88.0905 336.296 86.4567L341.046 58.7618C341.157 58.113 340.942 57.451 340.471 56.9915L320.349 37.3778C319.162 36.2207 319.817 34.2048 321.457 33.9664L349.265 29.9258C349.916 29.8311 350.479 29.422 350.771 28.8317L363.207 3.63397Z" fill="#F8A700"></path><path d="M468.207 3.63397C468.94 2.14748 471.06 2.14748 471.793 3.63397L484.229 28.8317C484.521 29.422 485.084 29.8311 485.735 29.9258L513.543 33.9664C515.183 34.2048 515.838 36.2207 514.651 37.3778L494.529 56.9915C494.058 57.451 493.843 58.113 493.954 58.7618L498.704 86.4567C498.984 88.0905 497.27 89.3365 495.802 88.5651L470.931 75.4893C470.348 75.183 469.652 75.183 469.069 75.4893L444.198 88.5651C442.73 89.3365 441.016 88.0905 441.296 86.4567L446.046 58.7618C446.157 58.113 445.942 57.451 445.471 56.9915L425.349 37.3778C424.162 36.2207 424.817 34.2048 426.457 33.9664L454.265 29.9258C454.916 29.8311 455.479 29.422 455.771 28.8317L468.207 3.63397Z" fill="#F8A700"></path></svg> 