<?xml version="1.0" encoding="UTF-8"?> <svg xmlns="http://www.w3.org/2000/svg" viewBox="0 0 100 100" fill-rule="evenodd"><path d="m72.895 25.617zm-34.848 66.289c1.0938 0.49219 5.7227 0.45703 8.0195-0.79688-1.4336-13.598 1.1602-24.176 4.2188-28.301 0.18359-0.24609 0.46875-0.39062 0.77344-0.39062 0.30469 0 0.59375 0.14453 0.77344 0.39062 3.0625 4.125 5.6562 14.699 4.2227 28.301 2.293 1.2539 6.9258 1.2891 8.0195 0.79688 0.11328-2.0078-0.23828-7.4805-0.44922-10.809-0.070312-1.1016-0.12891-2.0508-0.16406-2.6758v-0.023437c-0.042969-1.4805-0.066407-2.8906-0.09375-4.25-0.10938-6.2695-0.20313-11.684-2.0195-18.801-0.92969-3.6367 0.18359-6.9805 1.2617-10.211 0.73828-2.2148 1.5-4.5039 1.6328-6.9258 0.019531-0.30859 0.17969-0.58984 0.44141-0.75391 0.25781-0.16797 0.58203-0.19922 0.87109-0.089843 0.97266 0.375 2.1094 0.92187 3.3164 1.4961 3.1797 1.5234 7.5273 3.6094 9.6797 2.6406 0.65234-0.29297 1.0977-0.87891 1.3594-1.793 0.39844-1.3867 1.6094-10.93 1.7891-13.754 0.019531-0.26953 0.14844-0.51953 0.35547-0.6875 1.0195-0.82812 2.9648-4.9375 2.6914-7.2227-0.09375-0.78516-0.41016-0.9375-0.51562-0.98438-2.8594-1.3594-4.8984-1.9805-6.0508-1.8438-0.76563 0.09375-1.0625 0.48047-1.6133 1.2812l-0.054687 0.078125c-0.67188 0.98047-1.5859 3.1836-1.4805 4.4062 0.039062 0.48047-0.27734 0.91406-0.75 1.0234-0.60156 0.13281-1 0.44531-1.0664 0.83203-0.070313 0.41406 0.25391 0.90234 0.84375 1.2734 0.035156 0.023438 0.070312 0.046875 0.10156 0.074219 0.51953 0.42969 1.0664 1.3438 0.70312 4.625-0.17969 1.6406-0.5625 3.4766-0.8125 4.2383-0.082031 0.25391-0.26562 0.46094-0.50781 0.57422-0.24219 0.11328-0.51953 0.12109-0.76562 0.023438-2.2266-0.89063-3.5898-2.1992-4.793-3.3516-2.2969-2.2031-3.957-3.7969-10.977-1.2344-0.33594 0.12109-0.70703 0.050781-0.97266-0.1875-1.9727-1.7695 0.37109-8.4883 1.3711-10.195 1.3438-3.1602 1.3672-5.875 0.058594-7.8594-1.25-1.8945-3.6445-3.0273-6.4102-3.0273-2.7656 0-5.1602 1.1328-6.4102 3.0273-1.3047 1.9805-1.2852 4.6992 0.058594 7.8594 0.99609 1.7031 3.3398 8.4258 1.3711 10.195-0.26562 0.23828-0.64062 0.3125-0.97266 0.1875-7.0195-2.5625-8.6797-0.96875-10.98 1.2344-1.2031 1.1562-2.5664 2.4648-4.793 3.3516-0.25 0.097656-0.52734 0.089843-0.76562-0.023438-0.24219-0.11328-0.42578-0.32031-0.50781-0.57422-0.24609-0.76172-0.62891-2.5977-0.8125-4.2383-0.36328-3.2773 0.18359-4.1953 0.70312-4.625 0.03125-0.027344 0.066407-0.050781 0.10156-0.074219 0.59375-0.37109 0.91406-0.85938 0.84375-1.2734-0.066406-0.38672-0.46484-0.69531-1.0664-0.83203-0.46875-0.10547-0.78906-0.54297-0.75-1.0234 0.10156-1.2227-0.80859-3.4258-1.4805-4.4062l-0.054688-0.078125c-0.54687-0.80078-0.84766-1.1914-1.6094-1.2812-1.1562-0.13672-3.1914 0.48047-6.0547 1.8438-0.10156 0.050781-0.41797 0.19922-0.51562 0.98438-0.27344 2.2852 1.6758 6.3984 2.6953 7.2227 0.21094 0.16797 0.33594 0.41797 0.35156 0.68359 0.18359 2.8281 1.3945 12.371 1.793 13.758 0.26172 0.91016 0.70703 1.4961 1.3555 1.7891 2.1562 0.96484 6.5039-1.1172 9.6797-2.6406 1.2031-0.57812 2.3438-1.1211 3.3164-1.4961 0.28906-0.10938 0.60938-0.078125 0.87109 0.089844 0.25781 0.16797 0.42188 0.44922 0.44141 0.75391 0.13281 2.4219 0.89844 4.7109 1.6328 6.9258 1.0781 3.2305 2.1875 6.5703 1.2617 10.211-1.8164 7.1211-1.9102 12.535-2.0234 18.805-0.023437 1.3594-0.046875 2.7656-0.089844 4.25 0 0.007812 0 0.015624-0.003906 0.023437-0.03125 0.625-0.09375 1.5742-0.16406 2.6719-0.21094 3.332-0.55859 8.8047-0.44922 10.812zm2.5273 2.2383c-1.3906 0-2.6211-0.17578-3.3594-0.50781-0.81641-0.36328-1.0312-0.89844-1.0664-1.2812-0.17969-1.8945 0.16797-7.3789 0.42187-11.383 0.070313-1.0859 0.12891-2.0234 0.16016-2.6367 0.042969-1.4688 0.066406-2.8633 0.089843-4.2148 0.11328-6.3945 0.20703-11.91 2.082-19.25 0.78516-3.0898-0.1875-6.0195-1.2227-9.125-0.64453-1.9375-1.3086-3.9297-1.6016-6.082-0.625 0.28125-1.3008 0.60547-1.9961 0.94141-3.9062 1.8711-8.3359 3.9922-11.305 2.6641-1.1836-0.53125-1.9961-1.5469-2.4219-3.0195-0.45312-1.5664-1.582-10.574-1.8359-13.785-1.5-1.582-3.3984-5.8438-3.0664-8.6445 0.17969-1.5195 0.96875-2.1953 1.6016-2.4961 7.0117-3.3398 8.6016-2.0703 10.082 0.089843l0.054687 0.078126c0.55859 0.81641 1.6602 3 1.8086 4.8828 0.97266 0.42578 1.6367 1.2031 1.8008 2.1406 0.19922 1.1758-0.39062 2.3438-1.5938 3.1523-0.37109 0.70703-0.007812 3.793 0.41406 5.7266 1.3203-0.70703 2.2617-1.6094 3.1758-2.4883 2.3906-2.2969 4.6562-4.4648 12.117-1.9531 0.13281-1.5156-0.75781-5.4922-1.8828-7.332-0.023438-0.039063-0.046875-0.082032-0.0625-0.12109-2.0664-4.8125-1.1016-7.9531 0.078125-9.7383 1.6055-2.4414 4.6055-3.8945 8.0195-3.8945 3.4141 0 6.4141 1.457 8.0195 3.8945 1.1758 1.7852 2.1445 4.9258 0.074218 9.7383-0.019531 0.042969-0.039062 0.082031-0.0625 0.12109-1.125 1.8398-2.0195 5.8164-1.8828 7.332 7.4609-2.5117 9.7266-0.33984 12.117 1.9531 0.91406 0.87891 1.8516 1.7773 3.1758 2.4883 0.41797-1.9297 0.78516-5.0195 0.41016-5.7266-1.1992-0.80859-1.793-1.9766-1.5938-3.1523 0.16406-0.9375 0.82812-1.7148 1.7969-2.1406 0.15234-1.8828 1.25-4.0664 1.8125-4.8828l0.050781-0.078126c1.4805-2.1602 3.0703-3.4297 10.082-0.089843 0.62891 0.30078 1.418 0.97656 1.5977 2.4961 0.33594 2.8008-1.5625 7.0625-3.0625 8.6445-0.25391 3.2109-1.3867 12.219-1.8359 13.785-0.42188 1.4727-1.2383 2.4844-2.4219 3.0195-0.64844 0.28906-1.3672 0.41406-2.1328 0.41406-2.7461 0.003906-6.1172-1.6133-9.168-3.0781-0.69922-0.33594-1.375-0.66016-1.9961-0.94141-0.29297 2.1562-0.95703 4.1445-1.6016 6.082-1.0352 3.1055-2.0117 6.0352-1.2227 9.125 1.875 7.3398 1.9688 12.859 2.0781 19.25 0.023438 1.3516 0.046875 2.75 0.089844 4.2188 0.03125 0.61719 0.09375 1.5547 0.16016 2.6406 0.25391 4.0039 0.60547 9.4883 0.42578 11.383-0.039062 0.38281-0.25391 0.91797-1.0664 1.2812-2.0508 0.91406-7.8711 0.64062-10.449-1.2617-0.27734-0.20312-0.42188-0.54297-0.38672-0.88281 1.3203-11.641-0.4375-21.594-3.0117-26.309-2.5781 4.7109-4.3359 14.668-3.0156 26.309 0.039063 0.33984-0.10938 0.67969-0.38672 0.88281-1.6484 1.2148-4.6211 1.7695-7.0859 1.7695z" fill="#ff9000" stroke-width="0.5" stroke="#ff9000"></path><path d="m42.922 17.152h-16.422c-0.53125 0-0.96484-0.42969-0.96484-0.96484 0-0.53125 0.43359-0.96484 0.96484-0.96484h16.422c0.53125 0 0.96484 0.43359 0.96484 0.96484s-0.42969 0.96484-0.96484 0.96484zm32.699 0h-16.422c-0.53125 0-0.96484-0.42969-0.96484-0.96484 0-0.53125 0.43359-0.96484 0.96484-0.96484h16.422c0.53125 0 0.96484 0.43359 0.96484 0.96484s-0.43359 0.96484-0.96484 0.96484zm-58.812 4.8906h-9.9883c-0.53125 0-0.96484-0.42969-0.96484-0.96484v-4.8906c0-0.53125 0.42969-0.96484 0.96484-0.96484h10.648c0.53125 0 0.96484 0.43359 0.96484 0.96484s-0.43359 0.96484-0.96484 0.96484h-9.6836v2.9609h9.0234c0.53125 0 0.96484 0.42969 0.96484 0.96484 0 0.53125-0.43359 0.96484-0.96484 0.96484zm27.93 0h-16.699c-0.53125 0-0.96484-0.42969-0.96484-0.96484s0.43359-0.96484 0.96484-0.96484h16.699c0.53125 0 0.96484 0.42969 0.96484 0.96484 0 0.53125-0.43359 0.96484-0.96484 0.96484zm29.277 0h-16.641c-0.53125 0-0.96484-0.42969-0.96484-0.96484s0.43359-0.96484 0.96484-0.96484h16.641c0.53125 0 0.96484 0.42969 0.96484 0.96484 0 0.53125-0.43359 0.96484-0.96484 0.96484zm19.156 0h-7.8633c-0.53125 0-0.96484-0.42969-0.96484-0.96484s0.43359-0.96484 0.96484-0.96484h6.9023v-2.9609h-7.5586c-0.53125 0-0.96484-0.42969-0.96484-0.96484 0-0.53125 0.43359-0.96484 0.96484-0.96484h8.5234c0.53125 0 0.96484 0.43359 0.96484 0.96484v4.8906c0 0.53125-0.43359 0.96484-0.96484 0.96484z" fill="#ff9000" stroke-width="0.5" stroke="#ff9000"></path><path d="m22.238 70.141h2.543v-11.488c0-0.53125 0.42969-0.96484 0.96484-0.96484h2.75l-4.9844-7.7188-4.9844 7.7188h2.75c0.53516 0 0.96484 0.43359 0.96484 0.96484v11.484zm3.5039 1.9258h-4.4688c-0.53125 0-0.96484-0.42969-0.96484-0.96484v-11.488h-3.5547c-0.35156 0-0.67578-0.19141-0.84375-0.5-0.17188-0.3125-0.15625-0.6875 0.035156-0.98438l6.7539-10.461c0.17578-0.27344 0.48047-0.44141 0.80859-0.44141 0.32813 0 0.63281 0.16406 0.8125 0.44141l6.7539 10.461c0.19141 0.29688 0.20312 0.67188 0.035156 0.98438-0.16797 0.30859-0.49219 0.5-0.84766 0.5h-3.5547v11.488c0 0.53125-0.43359 0.96484-0.96484 0.96484z" fill="#ff9000" stroke-width="0.5" stroke="#ff9000"></path><path d="m75.219 70.141h2.5391v-11.488c0-0.53125 0.43359-0.96484 0.96484-0.96484h2.75l-4.9844-7.7188-4.9844 7.7188h2.75c0.53125 0 0.96484 0.43359 0.96484 0.96484zm3.5039 1.9258h-4.4688c-0.53125 0-0.96484-0.42969-0.96484-0.96484v-11.488h-3.5547c-0.35156 0-0.67578-0.19141-0.84375-0.5-0.16797-0.3125-0.15625-0.6875 0.035156-0.98438l6.7539-10.461c0.17969-0.27344 0.48047-0.44141 0.80859-0.44141s0.63281 0.16406 0.8125 0.44141l6.7539 10.461c0.19141 0.29688 0.20312 0.67188 0.035156 0.98438-0.16797 0.30859-0.49219 0.5-0.84375 0.5h-3.5547v11.488c0 0.53125-0.43359 0.96484-0.96484 0.96484z" fill="#ff9000" stroke-width="0.5" stroke="#ff9000"></path><path d="m46.898 42.5h-0.027344c-0.53125-0.015625-0.95312-0.45703-0.9375-0.98828 0.050781-1.8633-0.9375-3.5742-2.5742-4.4609-0.46875-0.25391-0.64062-0.83594-0.39062-1.3047 0.25391-0.46875 0.83594-0.64062 1.3086-0.39062 2.2812 1.2344 3.6562 3.6133 3.582 6.207-0.015625 0.52344-0.44531 0.9375-0.96484 0.9375z" fill="#ff9000" stroke-width="0.5" stroke="#ff9000"></path><path d="m55.223 42.5c-0.51953 0-0.94922-0.41406-0.96094-0.9375-0.070313-2.5938 1.3008-4.9727 3.582-6.207 0.46875-0.25391 1.0547-0.078125 1.3086 0.39062s0.078125 1.0508-0.39062 1.3047c-1.6406 0.88672-2.625 2.5977-2.5742 4.4609 0.015625 0.53125-0.40234 0.97656-0.9375 0.98828h-0.027344z" fill="#ff9000" stroke-width="0.5" stroke="#ff9000"></path></svg> 