<?xml version="1.0" encoding="UTF-8"?> <svg xmlns="http://www.w3.org/2000/svg" viewBox="0 0 100 100" fill-rule="evenodd"><path d="m54.688 51.035c-2.3594 0-4.2773-1.9258-4.2773-4.2852 0-2.3555 1.918-4.2734 4.2773-4.2734s4.2773 1.918 4.2773 4.2734-1.918 4.2852-4.2773 4.2852zm0-11.168c-3.8008 0-6.8906 3.0859-6.8906 6.8828 0 3.8008 3.0898 6.8945 6.8906 6.8945s6.8945-3.0938 6.8945-6.8945c-0.003906-3.8008-3.0938-6.8828-6.8945-6.8828zm32.887-16.348-11.273 47.145v-52.695l9.3125 2.3242c1.4258 0.36328 2.3047 1.8047 1.9609 3.2266zm-16.641 60.516c1.5195 0 2.7578-1.2461 2.7578-2.7539l-0.003906-69.051c0-1.5195-1.2344-2.7539-2.7578-2.7539h-32.488c-1.5195 0-2.7539 1.2344-2.7539 2.7539v41.723c1.4336 0.14453 2.8086 0.33984 4.1094 0.60547v-33.031c0-0.71484 0.58594-1.3125 1.3086-1.3125 2.4883 0 4.5156-2.0156 4.5156-4.5039 0-0.72656 0.58594-1.3125 1.3086-1.3125h15.52c0.72266 0 1.3086 0.58203 1.3086 1.3125 0 2.4883 2.0234 4.5039 4.5156 4.5039 0.72266 0 1.3086 0.59375 1.3086 1.3125v50.457c0 0.71484-0.58594 1.3008-1.3086 1.3008-2.4883 0-4.5156 2.0273-4.5156 4.5156 0 0.72656-0.58594 1.3125-1.3086 1.3125l-12.035-0.003906v4.9219zm-40.859 6.4883c-10.82 0-17.723-3.0742-17.723-5.1875v-7.918c4.0781 2.7852 11.875 3.7891 17.723 3.7891 5.8516 0 13.641-1.0039 17.723-3.7891v7.918c0 2.1133-6.9062 5.1875-17.723 5.1875zm-17.723-25.039c7.5234 5.0469 27.91 5.0469 35.445 0v7.918c0 2.1133-6.9062 5.1875-17.723 5.1875-10.82 0-17.723-3.0742-17.723-5.1875zm38.062 7.9219v3.0859h10.852c0.53906-2.875 2.8164-5.1562 5.7031-5.6953l-0.003906-48.082c-2.8867-0.53906-5.1641-2.8203-5.7031-5.707l-13.148 0.003907c-0.53516 2.8867-2.8164 5.1641-5.6992 5.707v32.449c0.53125 0.15234 1.0469 0.30859 1.5391 0.47266 5.3398 1.8281 6.4609 4.1758 6.4609 5.8281zm-20.34-17.117c10.82 0 17.723 3.0625 17.723 5.1758 0 2.1133-6.9062 5.1875-17.723 5.1875-10.82 0-17.723-3.0742-17.723-5.1875 0-2.1133 6.9023-5.1758 17.723-5.1758zm-8.2656-32.727c-0.34375-1.4336 0.53906-2.875 1.957-3.2266l9.3047-2.3242 0.003907 35.73c-0.98438-0.042969-1.9883-0.078126-3-0.078126-0.35547 0-0.71094 0.011719-1.0625 0.011719zm64.441-5.8047-9.9492-2.4883v-3.0391c0-2.9648-2.4062-5.3633-5.3711-5.3633h-32.488c-2.9609 0-5.3672 2.4023-5.3672 5.3633v3.0859l-9.9414 2.4883c-2.8047 0.69531-4.5391 3.5586-3.8672 6.3672l7.082 29.617c-3.8125 0.25391-7.3281 0.89063-10.156 1.8516-5.3359 1.8281-6.457 4.1758-6.457 5.8281v23.867c0 1.6523 1.1211 4.0078 6.457 5.8281 7.7031 2.6328 20.051 2.6328 27.758 0 4.0469-1.375 5.668-3.0625 6.2188-4.5156h20.762c2.5312 0 4.6562-1.7617 5.2188-4.1211l13.965-58.387c0.67578-2.8242-1.0547-5.6758-3.8633-6.3828z" fill-rule="evenodd" fill="#ff9000"></path></svg> 