<?xml version="1.0" encoding="UTF-8"?> <svg xmlns="http://www.w3.org/2000/svg" viewBox="0 0 100 100" fill-rule="evenodd"><path d="m67.918 5.1875h-35.836c-4.5703 0-8.293 3.7188-8.293 8.293v73.039c0 4.5703 3.7188 8.293 8.293 8.293h35.832c4.5703 0 8.293-3.7188 8.293-8.293v-73.039c0-4.5742-3.7188-8.293-8.2891-8.293zm4.2891 81.332c0 2.3672-1.9258 4.293-4.293 4.293h-35.832c-2.3672 0-4.293-1.9258-4.293-4.293v-24.75h44.418zm0-28.75h-44.414v-44.289c0-2.3672 1.9258-4.293 4.293-4.293h35.832c2.3672 0 4.293 1.9258 4.293 4.293z" fill="#ff9000"></path><path d="m33.832 70.355h4.332c1.6562 0 3-1.3438 3-3s-1.3438-3-3-3h-4.332c-1.6562 0-3 1.3438-3 3s1.3438 3 3 3z" fill="#ff9000"></path><path d="m47.832 70.355h4.332c1.6562 0 3-1.3438 3-3s-1.3438-3-3-3h-4.332c-1.6562 0-3 1.3438-3 3s1.3438 3 3 3z" fill="#ff9000"></path><path d="m61.832 70.355h4.332c1.6562 0 3-1.3438 3-3s-1.3438-3-3-3h-4.332c-1.6562 0-3 1.3438-3 3s1.3438 3 3 3z" fill="#ff9000"></path><path d="m33.832 79.105h4.332c1.6562 0 3-1.3438 3-3s-1.3438-3-3-3h-4.332c-1.6562 0-3 1.3438-3 3s1.3438 3 3 3z" fill="#ff9000"></path><path d="m47.832 79.105h4.332c1.6562 0 3-1.3438 3-3s-1.3438-3-3-3h-4.332c-1.6562 0-3 1.3438-3 3s1.3438 3 3 3z" fill="#ff9000"></path><path d="m61.832 79.105h4.332c1.6562 0 3-1.3438 3-3s-1.3438-3-3-3h-4.332c-1.6562 0-3 1.3438-3 3s1.3438 3 3 3z" fill="#ff9000"></path><path d="m33.832 87.855h4.332c1.6562 0 3-1.3438 3-3s-1.3438-3-3-3h-4.332c-1.6562 0-3 1.3438-3 3s1.3438 3 3 3z" fill="#ff9000"></path><path d="m47.832 87.855h4.332c1.6562 0 3-1.3438 3-3s-1.3438-3-3-3h-4.332c-1.6562 0-3 1.3438-3 3s1.3438 3 3 3z" fill="#ff9000"></path><path d="m61.832 87.855h4.332c1.6562 0 3-1.3438 3-3s-1.3438-3-3-3h-4.332c-1.6562 0-3 1.3438-3 3s1.3438 3 3 3z" fill="#ff9000"></path><path d="m55.168 11.938h-10.336c-1.1055 0-2 0.89453-2 2s0.89453 2 2 2h10.332c1.1055 0 2-0.89453 2-2 0.003907-1.1055-0.89453-2-1.9961-2z" fill="#ff9000"></path></svg> 