<svg xmlns="http://www.w3.org/2000/svg" viewBox="0 0 100 100" fill-rule="evenodd"><g class="t-group-origins"><path d="M85.5 16h-71a1.5 1.5 0 0 0-1.5 1.5v64a1.5 1.5 0 0 0 1.5 1.5h71a1.5 1.5 0 0 0 1.5-1.5v-64a1.5 1.5 0 0 0-1.5-1.5ZM84 19v15H16V19ZM16 80V37h68v43Z" stroke-width="1" stroke="#ff9000" fill="#ff9000" stroke-width-old="0"></path><path d="M21.5 28h6a1.5 1.5 0 0 0 0-3h-6a1.5 1.5 0 0 0 0 3ZM35 28h6a1.5 1.5 0 0 0 0-3h-6a1.5 1.5 0 0 0 0 3Zm27.37 28.5-18-12.73A1.5 1.5 0 0 0 42 45v24a1.5 1.5 0 0 0 2.3 1.27L62.3 59a1.5 1.5 0 0 0 .07-2.5ZM45 66.29V47.9l13.79 9.75Z" stroke-width="1" stroke="#ff9000" fill="#ff9000" stroke-width-old="0"></path></g></svg>
