<svg xmlns="http://www.w3.org/2000/svg" viewBox="0 0 100 100" fill-rule="evenodd"><rect x="0" y="0" width="100" height="100" fill="#ff8900"></rect><g class="t-group-origins" style="transform-origin:center;transform:scale(0.84);"><path d="M85.94 67.9v-.06a1.49 1.49 0 0 0 0-.33v-50A1.5 1.5 0 0 0 84.5 16h-10a1.49 1.49 0 0 0-.5.09 1.49 1.49 0 0 0-.5-.09H73V9.5a1.5 1.5 0 0 0-3 0V16H52V9.5a1.5 1.5 0 0 0-3 0V16H31V9.5a1.5 1.5 0 0 0-3 0V16H16.5a1.5 1.5 0 0 0-1.5 1.5v67a1.5 1.5 0 0 0 1.5 1.5h49a1.49 1.49 0 0 0 .5-.09h.05a1.49 1.49 0 0 0 .42-.25l19-17a1.5 1.5 0 0 0 .25-.3v-.07a1.48 1.48 0 0 0 .22-.39ZM28 19v3.5a1.5 1.5 0 0 0 3 0V19h18v3.5a1.5 1.5 0 0 0 3 0V19h18v3.5a1.5 1.5 0 0 0 3 0V19h.5a1.49 1.49 0 0 0 .5-.09 1.49 1.49 0 0 0 .5.09H83v15H18V19ZM18 37h65v29H65.5a1.5 1.5 0 0 0-1.5 1.5V83H18Zm49 44.15V69h13.57Z" stroke-width="0" stroke="#ffffff" fill="#ffffff" stroke-width-old="0"></path><path d="M33.5 46h-10a1.5 1.5 0 0 0 0 3h10a1.5 1.5 0 0 0 0-3Zm11 3h11a1.5 1.5 0 0 0 0-3h-11a1.5 1.5 0 0 0 0 3Zm22 0h11a1.5 1.5 0 0 0 0-3h-11a1.5 1.5 0 0 0 0 3Zm-33 8h-10a1.5 1.5 0 0 0 0 3h10a1.5 1.5 0 0 0 0-3Zm22 0h-11a1.5 1.5 0 0 0 0 3h11a1.5 1.5 0 0 0 0-3Zm11 3h11a1.5 1.5 0 0 0 0-3h-11a1.5 1.5 0 0 0 0 3Zm-33 8h-10a1.5 1.5 0 0 0 0 3h10a1.5 1.5 0 0 0 0-3Zm21 0h-10a1.5 1.5 0 0 0 0 3h10a1.5 1.5 0 0 0 0-3Z" stroke-width="0" stroke="#ffffff" fill="#ffffff" stroke-width-old="0"></path></g></svg>
