<?xml version="1.0" encoding="UTF-8"?> <svg xmlns="http://www.w3.org/2000/svg" width="51" height="8" viewBox="0 0 51 8" fill="none"><path d="M47.6996 7.29598C47.2036 7.29598 46.7916 7.23599 46.4636 7.11599C46.1436 6.98799 45.9036 6.77198 45.7436 6.46798C45.5916 6.15598 45.5156 5.72399 45.5156 5.17199V4.94398H47.5196V5.47199C47.5196 5.74399 47.5356 5.93998 47.5676 6.05998C47.5996 6.17198 47.6676 6.22798 47.7716 6.22798C47.8676 6.22798 47.9316 6.18799 47.9636 6.10799C47.9956 6.03599 48.0116 5.85599 48.0116 5.56799C48.0116 5.30398 47.9676 5.09998 47.8796 4.95598C47.7916 4.81198 47.6516 4.69198 47.4596 4.59598C47.2756 4.49198 47.0316 4.37599 46.7276 4.24799C46.2796 4.04799 45.9756 3.78398 45.8156 3.45599C45.6556 3.11999 45.5756 2.67999 45.5756 2.13598C45.5756 1.62398 45.6436 1.21998 45.7796 0.923985C45.9236 0.619985 46.1556 0.403985 46.4756 0.275985C46.7956 0.147985 47.2276 0.0839844 47.7716 0.0839844C49.2276 0.0839844 49.9556 0.659984 49.9556 1.81198V2.60398H48.0476V2.41198C48.0476 2.25198 48.0436 2.10798 48.0356 1.97998C48.0356 1.85198 48.0316 1.74798 48.0236 1.66798C47.9996 1.50798 47.9236 1.42798 47.7956 1.42798C47.6916 1.42798 47.6236 1.49198 47.5916 1.61998C47.5676 1.74798 47.5556 1.89998 47.5556 2.07598C47.5556 2.29998 47.5956 2.47199 47.6756 2.59199C47.7636 2.70399 47.8836 2.79198 48.0356 2.85598C48.1876 2.91998 48.3556 2.98798 48.5396 3.05998C48.9156 3.19598 49.2116 3.33998 49.4276 3.49198C49.6436 3.63598 49.7996 3.83599 49.8956 4.09199C49.9916 4.33999 50.0396 4.69198 50.0396 5.14798C50.0396 5.93198 49.8356 6.48799 49.4276 6.81599C49.0196 7.13599 48.4436 7.29598 47.6996 7.29598ZM47.7596 6.73198C47.8476 6.73198 47.9436 6.72798 48.0476 6.71998C48.1596 6.71198 48.2476 6.69999 48.3116 6.68399C48.5916 6.61999 48.7916 6.48399 48.9116 6.27599C49.0396 6.06799 49.1036 5.73598 49.1036 5.27998C49.1036 4.89599 49.0276 4.59199 48.8756 4.36799C48.7316 4.13599 48.4996 3.96398 48.1796 3.85198L47.8076 3.71998L47.4596 3.55198C47.1556 3.39998 46.9436 3.21598 46.8236 2.99998C46.7116 2.77598 46.6556 2.49198 46.6556 2.14798C46.6556 1.73998 46.7036 1.43598 46.7996 1.23598C46.9036 1.02798 47.0916 0.895985 47.3636 0.839984C47.4276 0.823985 47.4956 0.811985 47.5676 0.803984C47.6476 0.795984 47.7276 0.791985 47.8076 0.791985C47.9516 0.791985 48.0756 0.803985 48.1796 0.827985C48.4756 0.875985 48.6796 1.00398 48.7916 1.21199C48.9116 1.41198 48.9716 1.72398 48.9716 2.14798H49.0076C49.0316 1.69198 48.9796 1.36398 48.8516 1.16398C48.7316 0.963985 48.5076 0.839985 48.1796 0.791985C48.1236 0.783985 48.0636 0.779985 47.9996 0.779985C47.9356 0.771985 47.8716 0.767985 47.8076 0.767985C47.6316 0.767985 47.4836 0.779984 47.3636 0.803984C47.0596 0.859984 46.8396 0.991985 46.7036 1.19999C46.5676 1.39998 46.4996 1.71598 46.4996 2.14798C46.4996 2.85998 46.8116 3.34398 47.4356 3.59998L47.7956 3.74398L48.1556 3.89998C48.4676 4.03598 48.6796 4.20798 48.7916 4.41598C48.9036 4.62398 48.9596 4.91198 48.9596 5.27998C48.9596 5.71198 48.9116 6.03599 48.8156 6.25199C48.7276 6.45999 48.5556 6.59198 48.2996 6.64798C48.2356 6.66398 48.1516 6.67999 48.0476 6.69599C47.9436 6.70399 47.8476 6.70799 47.7596 6.70799C47.6956 6.70799 47.6116 6.70399 47.5076 6.69599C47.4116 6.68799 47.3356 6.67599 47.2796 6.65999C46.9916 6.60399 46.7916 6.47199 46.6796 6.26399C46.5756 6.05599 46.5236 5.72398 46.5236 5.26798H46.4876C46.4636 5.74798 46.5076 6.09598 46.6196 6.31198C46.7396 6.51998 46.9556 6.64799 47.2676 6.69599C47.3236 6.70399 47.4036 6.71198 47.5076 6.71998C47.6116 6.72798 47.6956 6.73198 47.7596 6.73198Z" fill="url(#paint0_radial_15342_2699)"></path><path d="M43.0356 7.344C42.5556 7.344 42.1516 7.284 41.8236 7.164C41.5036 7.044 41.2596 6.824 41.0916 6.504C40.9316 6.176 40.8516 5.716 40.8516 5.124V1.62C40.8516 1.028 41.0516 0.612 41.4516 0.372C41.8516 0.124 42.3796 0 43.0356 0C43.6916 0 44.2036 0.124 44.5716 0.372C44.9476 0.612 45.1356 1.028 45.1356 1.62V3.276H43.2276V1.524C43.2276 1.388 43.2116 1.292 43.1796 1.236C43.1476 1.188 43.0996 1.164 43.0356 1.164C42.9796 1.164 42.9316 1.188 42.8916 1.236C42.8596 1.292 42.8436 1.388 42.8436 1.524V5.88C42.8436 6.024 42.8596 6.116 42.8916 6.156C42.9236 6.212 42.9716 6.24 43.0356 6.24C43.0996 6.24 43.1476 6.212 43.1796 6.156C43.2116 6.116 43.2276 6.024 43.2276 5.88V4.224H45.1356V5.112C45.1356 5.712 45.0596 6.172 44.9076 6.492C44.7636 6.812 44.5356 7.036 44.2236 7.164C43.9116 7.284 43.5156 7.344 43.0356 7.344ZM43.0356 6.672C43.1316 6.672 43.2196 6.672 43.2996 6.672C43.3876 6.664 43.4676 6.648 43.5396 6.624C43.7796 6.552 43.9516 6.424 44.0556 6.24C44.1596 6.048 44.2116 5.744 44.2116 5.328L44.1876 4.608H44.1636L44.1516 5.328C44.1516 5.712 44.1036 6 44.0076 6.192C43.9116 6.376 43.7476 6.504 43.5156 6.576C43.3876 6.624 43.2276 6.648 43.0356 6.648C42.8436 6.648 42.6756 6.624 42.5316 6.576C42.3236 6.512 42.1716 6.384 42.0756 6.192C41.9796 6 41.9316 5.712 41.9316 5.328L41.9796 3.672L41.9316 1.608C41.9316 1.368 41.9796 1.172 42.0756 1.02C42.1716 0.868 42.3356 0.764 42.5676 0.708C42.6396 0.692 42.7156 0.68 42.7956 0.672C42.8756 0.656 42.9556 0.648 43.0356 0.648C43.2036 0.648 43.3476 0.664 43.4676 0.696C43.7076 0.752 43.8796 0.852 43.9836 0.996C44.0876 1.14 44.1396 1.316 44.1396 1.524L44.1516 2.664H44.1756L44.1996 1.524C44.1996 1.3 44.1436 1.116 44.0316 0.972C43.9196 0.82 43.7356 0.712 43.4796 0.648C43.4556 0.64 43.4276 0.636 43.3956 0.636C43.3636 0.628 43.3276 0.624 43.2876 0.624H43.0356C42.9476 0.624 42.8596 0.628 42.7716 0.636C42.6916 0.636 42.6236 0.644 42.5676 0.66C42.3196 0.716 42.1436 0.824 42.0396 0.984C41.9356 1.144 41.8836 1.352 41.8836 1.608L41.8236 3.672L41.8836 5.328C41.8836 5.736 41.9356 6.04 42.0396 6.24C42.1436 6.432 42.2996 6.56 42.5076 6.624C42.5796 6.648 42.6596 6.664 42.7476 6.672C42.8356 6.672 42.9316 6.672 43.0356 6.672Z" fill="url(#paint1_radial_15342_2699)"></path><path d="M38.3984 7.2004V0.108398H40.3064V7.2004H38.3984ZM39.2984 6.6364H39.3464L39.4064 3.6004L39.3584 0.636398H39.3104L39.2504 3.6004L39.2984 6.6364Z" fill="url(#paint2_radial_15342_2699)"></path><path d="M33.6094 7.2004V0.108398H35.2654L36.1294 3.4084V0.108398H37.7974V7.2004H36.1534L35.2774 4.2604V7.2004H33.6094ZM34.4254 6.6364H34.4854L34.5214 3.6004L34.4854 0.792398L35.5294 3.5404L36.9214 6.6364H36.9574L36.9934 3.6004L36.9574 0.636398H36.8974L36.8614 3.6004L36.9094 6.5164L35.6974 3.6124L34.4614 0.636398H34.4254L34.3894 3.6004L34.4254 6.6364Z" fill="url(#paint3_radial_15342_2699)"></path><path d="M29.6719 7.2004V0.108398H33.1039V1.4404H31.6639V2.8204H32.9839V4.3204H31.6639V5.9044H33.1039V7.2004H29.6719ZM30.6319 6.5404L32.6119 6.5284V6.5044L30.6919 6.4924L30.7399 3.6244L32.3119 3.6124V3.5884L30.7399 3.5764L30.6919 0.816399L32.6119 0.804398V0.780399L30.6319 0.768399L30.5839 3.6004L30.6319 6.5404Z" fill="url(#paint4_radial_15342_2699)"></path><path d="M24.8203 7.2004V0.108398H26.7283V2.8564H27.1603V0.108398H29.0683V7.2004H27.1603V4.2604H26.7283V7.2004H24.8203ZM25.7203 6.6364H25.7683L25.8283 3.6244L26.9203 3.6124L28.0123 3.6244L28.0723 6.6364H28.1203L28.1683 3.6004L28.1083 0.636398H28.0603L28.0123 3.5764L26.9203 3.5884L25.8283 3.5764L25.7803 0.636398H25.7323L25.6723 3.6004L25.7203 6.6364Z" fill="url(#paint5_radial_15342_2699)"></path><path d="M21.4966 7.2004V1.4404H20.4766V0.108398H24.4246V1.4404H23.4046V7.2004H21.4966ZM22.4086 6.6364H22.4686L22.5166 3.6004L22.4686 0.768399L23.8486 0.744398V0.720398L22.4446 0.696398L21.1126 0.720398V0.744398L22.4086 0.768399L22.3606 3.6004L22.4086 6.6364Z" fill="url(#paint6_radial_15342_2699)"></path><path d="M17.8715 7.29598C17.3755 7.29598 16.9635 7.23599 16.6355 7.11599C16.3155 6.98799 16.0755 6.77198 15.9155 6.46798C15.7635 6.15598 15.6875 5.72399 15.6875 5.17199V4.94398H17.6915V5.47199C17.6915 5.74399 17.7075 5.93998 17.7395 6.05998C17.7715 6.17198 17.8395 6.22798 17.9435 6.22798C18.0395 6.22798 18.1035 6.18799 18.1355 6.10799C18.1675 6.03599 18.1835 5.85599 18.1835 5.56799C18.1835 5.30398 18.1395 5.09998 18.0515 4.95598C17.9635 4.81198 17.8235 4.69198 17.6315 4.59598C17.4475 4.49198 17.2035 4.37599 16.8995 4.24799C16.4515 4.04799 16.1475 3.78398 15.9875 3.45599C15.8275 3.11999 15.7475 2.67999 15.7475 2.13598C15.7475 1.62398 15.8155 1.21998 15.9515 0.923985C16.0955 0.619985 16.3275 0.403985 16.6475 0.275985C16.9675 0.147985 17.3995 0.0839844 17.9435 0.0839844C19.3995 0.0839844 20.1275 0.659984 20.1275 1.81198V2.60398H18.2195V2.41198C18.2195 2.25198 18.2155 2.10798 18.2075 1.97998C18.2075 1.85198 18.2035 1.74798 18.1955 1.66798C18.1715 1.50798 18.0955 1.42798 17.9675 1.42798C17.8635 1.42798 17.7955 1.49198 17.7635 1.61998C17.7395 1.74798 17.7275 1.89998 17.7275 2.07598C17.7275 2.29998 17.7675 2.47199 17.8475 2.59199C17.9355 2.70399 18.0555 2.79198 18.2075 2.85598C18.3595 2.91998 18.5275 2.98798 18.7115 3.05998C19.0875 3.19598 19.3835 3.33998 19.5995 3.49198C19.8155 3.63598 19.9715 3.83599 20.0675 4.09199C20.1635 4.33999 20.2115 4.69198 20.2115 5.14798C20.2115 5.93198 20.0075 6.48799 19.5995 6.81599C19.1915 7.13599 18.6155 7.29598 17.8715 7.29598ZM17.9315 6.73198C18.0195 6.73198 18.1155 6.72798 18.2195 6.71998C18.3315 6.71198 18.4195 6.69999 18.4835 6.68399C18.7635 6.61999 18.9635 6.48399 19.0835 6.27599C19.2115 6.06799 19.2755 5.73598 19.2755 5.27998C19.2755 4.89599 19.1995 4.59199 19.0475 4.36799C18.9035 4.13599 18.6715 3.96398 18.3515 3.85198L17.9795 3.71998L17.6315 3.55198C17.3275 3.39998 17.1155 3.21598 16.9955 2.99998C16.8835 2.77598 16.8275 2.49198 16.8275 2.14798C16.8275 1.73998 16.8755 1.43598 16.9715 1.23598C17.0755 1.02798 17.2635 0.895985 17.5355 0.839984C17.5995 0.823985 17.6675 0.811985 17.7395 0.803984C17.8195 0.795984 17.8995 0.791985 17.9795 0.791985C18.1235 0.791985 18.2475 0.803985 18.3515 0.827985C18.6475 0.875985 18.8515 1.00398 18.9635 1.21199C19.0835 1.41198 19.1435 1.72398 19.1435 2.14798H19.1795C19.2035 1.69198 19.1515 1.36398 19.0235 1.16398C18.9035 0.963985 18.6795 0.839985 18.3515 0.791985C18.2955 0.783985 18.2355 0.779985 18.1715 0.779985C18.1075 0.771985 18.0435 0.767985 17.9795 0.767985C17.8035 0.767985 17.6555 0.779984 17.5355 0.803984C17.2315 0.859984 17.0115 0.991985 16.8755 1.19999C16.7395 1.39998 16.6715 1.71598 16.6715 2.14798C16.6715 2.85998 16.9835 3.34398 17.6075 3.59998L17.9675 3.74398L18.3275 3.89998C18.6395 4.03598 18.8515 4.20798 18.9635 4.41598C19.0755 4.62398 19.1315 4.91198 19.1315 5.27998C19.1315 5.71198 19.0835 6.03599 18.9875 6.25199C18.8995 6.45999 18.7275 6.59198 18.4715 6.64798C18.4075 6.66398 18.3235 6.67999 18.2195 6.69599C18.1155 6.70399 18.0195 6.70799 17.9315 6.70799C17.8675 6.70799 17.7835 6.70399 17.6795 6.69599C17.5835 6.68799 17.5075 6.67599 17.4515 6.65999C17.1635 6.60399 16.9635 6.47199 16.8515 6.26399C16.7475 6.05599 16.6955 5.72398 16.6955 5.26798H16.6595C16.6355 5.74798 16.6795 6.09598 16.7915 6.31198C16.9115 6.51998 17.1275 6.64799 17.4395 6.69599C17.4955 6.70399 17.5755 6.71198 17.6795 6.71998C17.7835 6.72798 17.8675 6.73198 17.9315 6.73198Z" fill="url(#paint7_radial_15342_2699)"></path><path d="M13.3125 7.2004V0.108398H15.2205V7.2004H13.3125ZM14.2125 6.6364H14.2605L14.3205 3.6004L14.2725 0.636398H14.2245L14.1645 3.6004L14.2125 6.6364Z" fill="url(#paint8_radial_15342_2699)"></path><path d="M9.70312 7.2004V0.108398H11.5871V5.9044H12.8951V7.2004H9.70312ZM10.6031 6.5404L12.3431 6.5284V6.5044L10.6631 6.4924L10.7111 3.6004L10.6631 0.636398H10.6031L10.5551 3.6004L10.6031 6.5404Z" fill="url(#paint9_radial_15342_2699)"></path><path d="M4.53125 7.2004L5.55125 0.108398H8.37125L9.36725 7.2004H7.21925L7.12325 6.1684H6.67925L6.60725 7.2004H4.53125ZM5.51525 6.6364H5.56325L5.59925 6.3844C5.61525 6.2964 5.62725 6.2004 5.63525 6.0964L5.67125 5.7244L6.90725 5.7124L8.13125 5.7244L8.22725 6.6364H8.28725L7.99925 3.6124L7.62725 0.612398L6.94325 0.636398L6.31925 0.612398L5.85125 3.5884L5.51525 6.6364ZM6.90725 5.7004L5.68325 5.6764L5.98325 3.6004L6.36725 0.660399L6.94325 0.648399L7.57925 0.660399L7.85525 3.6124L8.11925 5.6764L6.90725 5.7004ZM6.69125 5.2444H7.12325L6.90725 1.6084L6.69125 5.2444Z" fill="url(#paint10_radial_15342_2699)"></path><path d="M2.184 7.344C1.704 7.344 1.3 7.284 0.972 7.164C0.652 7.044 0.408 6.824 0.24 6.504C0.08 6.176 0 5.716 0 5.124V1.62C0 1.028 0.2 0.612 0.6 0.372C1 0.124 1.528 0 2.184 0C2.84 0 3.352 0.124 3.72 0.372C4.096 0.612 4.284 1.028 4.284 1.62V3.276H2.376V1.524C2.376 1.388 2.36 1.292 2.328 1.236C2.296 1.188 2.248 1.164 2.184 1.164C2.128 1.164 2.08 1.188 2.04 1.236C2.008 1.292 1.992 1.388 1.992 1.524V5.88C1.992 6.024 2.008 6.116 2.04 6.156C2.072 6.212 2.12 6.24 2.184 6.24C2.248 6.24 2.296 6.212 2.328 6.156C2.36 6.116 2.376 6.024 2.376 5.88V4.224H4.284V5.112C4.284 5.712 4.208 6.172 4.056 6.492C3.912 6.812 3.684 7.036 3.372 7.164C3.06 7.284 2.664 7.344 2.184 7.344ZM2.184 6.672C2.28 6.672 2.368 6.672 2.448 6.672C2.536 6.664 2.616 6.648 2.688 6.624C2.928 6.552 3.1 6.424 3.204 6.24C3.308 6.048 3.36 5.744 3.36 5.328L3.336 4.608H3.312L3.3 5.328C3.3 5.712 3.252 6 3.156 6.192C3.06 6.376 2.896 6.504 2.664 6.576C2.536 6.624 2.376 6.648 2.184 6.648C1.992 6.648 1.824 6.624 1.68 6.576C1.472 6.512 1.32 6.384 1.224 6.192C1.128 6 1.08 5.712 1.08 5.328L1.128 3.672L1.08 1.608C1.08 1.368 1.128 1.172 1.224 1.02C1.32 0.868 1.484 0.764 1.716 0.708C1.788 0.692 1.864 0.68 1.944 0.672C2.024 0.656 2.104 0.648 2.184 0.648C2.352 0.648 2.496 0.664 2.616 0.696C2.856 0.752 3.028 0.852 3.132 0.996C3.236 1.14 3.288 1.316 3.288 1.524L3.3 2.664H3.324L3.348 1.524C3.348 1.3 3.292 1.116 3.18 0.972C3.068 0.82 2.884 0.712 2.628 0.648C2.604 0.64 2.576 0.636 2.544 0.636C2.512 0.628 2.476 0.624 2.436 0.624H2.184C2.096 0.624 2.008 0.628 1.92 0.636C1.84 0.636 1.772 0.644 1.716 0.66C1.468 0.716 1.292 0.824 1.188 0.984C1.084 1.144 1.032 1.352 1.032 1.608L0.972 3.672L1.032 5.328C1.032 5.736 1.084 6.04 1.188 6.24C1.292 6.432 1.448 6.56 1.656 6.624C1.728 6.648 1.808 6.664 1.896 6.672C1.984 6.672 2.08 6.672 2.184 6.672Z" fill="url(#paint11_radial_15342_2699)"></path><defs><radialGradient id="paint0_radial_15342_2699" cx="0" cy="0" r="1" gradientUnits="userSpaceOnUse" gradientTransform="translate(47.7776 3.68998) scale(2.262 3.606)"><stop offset="0.322115" stop-color="#FFD500"></stop><stop offset="1" stop-color="#FF7E00"></stop></radialGradient><radialGradient id="paint1_radial_15342_2699" cx="0" cy="0" r="1" gradientUnits="userSpaceOnUse" gradientTransform="translate(42.9936 3.672) scale(2.142 3.672)"><stop offset="0.322115" stop-color="#FFD500"></stop><stop offset="1" stop-color="#FF7E00"></stop></radialGradient><radialGradient id="paint2_radial_15342_2699" cx="0" cy="0" r="1" gradientUnits="userSpaceOnUse" gradientTransform="translate(39.3524 3.6544) scale(0.954 3.546)"><stop offset="0.322115" stop-color="#FFD500"></stop><stop offset="1" stop-color="#FF7E00"></stop></radialGradient><radialGradient id="paint3_radial_15342_2699" cx="0" cy="0" r="1" gradientUnits="userSpaceOnUse" gradientTransform="translate(35.7034 3.6544) scale(2.094 3.546)"><stop offset="0.322115" stop-color="#FFD500"></stop><stop offset="1" stop-color="#FF7E00"></stop></radialGradient><radialGradient id="paint4_radial_15342_2699" cx="0" cy="0" r="1" gradientUnits="userSpaceOnUse" gradientTransform="translate(31.3879 3.6544) scale(1.716 3.546)"><stop offset="0.322115" stop-color="#FFD500"></stop><stop offset="1" stop-color="#FF7E00"></stop></radialGradient><radialGradient id="paint5_radial_15342_2699" cx="0" cy="0" r="1" gradientUnits="userSpaceOnUse" gradientTransform="translate(26.9443 3.6544) scale(2.124 3.546)"><stop offset="0.322115" stop-color="#FFD500"></stop><stop offset="1" stop-color="#FF7E00"></stop></radialGradient><radialGradient id="paint6_radial_15342_2699" cx="0" cy="0" r="1" gradientUnits="userSpaceOnUse" gradientTransform="translate(22.4506 3.6544) scale(1.974 3.546)"><stop offset="0.322115" stop-color="#FFD500"></stop><stop offset="1" stop-color="#FF7E00"></stop></radialGradient><radialGradient id="paint7_radial_15342_2699" cx="0" cy="0" r="1" gradientUnits="userSpaceOnUse" gradientTransform="translate(17.9495 3.68998) scale(2.262 3.606)"><stop offset="0.322115" stop-color="#FFD500"></stop><stop offset="1" stop-color="#FF7E00"></stop></radialGradient><radialGradient id="paint8_radial_15342_2699" cx="0" cy="0" r="1" gradientUnits="userSpaceOnUse" gradientTransform="translate(14.2665 3.6544) scale(0.954 3.546)"><stop offset="0.322115" stop-color="#FFD500"></stop><stop offset="1" stop-color="#FF7E00"></stop></radialGradient><radialGradient id="paint9_radial_15342_2699" cx="0" cy="0" r="1" gradientUnits="userSpaceOnUse" gradientTransform="translate(11.2991 3.6544) scale(1.596 3.546)"><stop offset="0.322115" stop-color="#FFD500"></stop><stop offset="1" stop-color="#FF7E00"></stop></radialGradient><radialGradient id="paint10_radial_15342_2699" cx="0" cy="0" r="1" gradientUnits="userSpaceOnUse" gradientTransform="translate(6.94925 3.6544) scale(2.418 3.546)"><stop offset="0.322115" stop-color="#FFD500"></stop><stop offset="1" stop-color="#FF7E00"></stop></radialGradient><radialGradient id="paint11_radial_15342_2699" cx="0" cy="0" r="1" gradientUnits="userSpaceOnUse" gradientTransform="translate(2.142 3.672) scale(2.142 3.672)"><stop offset="0.322115" stop-color="#FFD500"></stop><stop offset="1" stop-color="#FF7E00"></stop></radialGradient></defs></svg> 