<svg xmlns="http://www.w3.org/2000/svg" viewBox="0 0 100 100" fill-rule="evenodd"><g class="t-group-origins"><path d="M71.181 11.694a1.498 1.498 0 0 0-2.654-.159l-6.029 10.037a1.5 1.5 0 0 0 2.571 1.545l3.017-5.023c-1.09 9.996-6.258 19.957-14.563 27.834-9.838 9.331-22.55 14.47-35.794 14.47a1.5 1.5 0 1 0 0 3c14.016 0 27.461-5.431 37.859-15.293 8.736-8.286 14.214-18.786 15.453-29.381l2.238 5a1.5 1.5 0 1 0 2.738-1.225l-4.836-10.805zM18.102 71.433a1.5 1.5 0 0 0-1.5 1.5v14.76a1.5 1.5 0 1 0 3 0v-14.76a1.5 1.5 0 0 0-1.5-1.5zm22.602-6.258a1.5 1.5 0 0 0-1.5 1.5v21.018a1.5 1.5 0 1 0 3 0V66.675a1.5 1.5 0 0 0-1.5-1.5zm22.09-14.921a1.5 1.5 0 0 0-1.5 1.5v35.938a1.5 1.5 0 1 0 3 0V51.754a1.5 1.5 0 0 0-1.5-1.5zm19.478-35.938a1.5 1.5 0 0 0-1.5 1.5v71.876a1.5 1.5 0 1 0 3 0V15.816a1.5 1.5 0 0 0-1.5-1.5z" stroke-width="1" stroke="#ff9000" fill="#ff9000" stroke-width-old="0"></path></g></svg>
