<?xml version="1.0" encoding="UTF-8"?> <svg xmlns="http://www.w3.org/2000/svg" viewBox="0 0 100 100" fill-rule="evenodd"><path d="m84.02 48.492c0-1.5352-0.60938-3.0078-1.6953-4.0938-1.0859-1.0859-2.5586-1.6953-4.0938-1.6953h-21.293v21.012l6.1992 6.5312v-0.003906c0.17969 0.16406 0.28516 0.39844 0.28516 0.64062v11.566c0.007813 0.23438-0.082031 0.46484-0.24219 0.63281-0.16406 0.16797-0.39063 0.26172-0.625 0.26172-0.23438 0-0.45703-0.09375-0.62109-0.26172-0.16016-0.16797-0.25-0.39844-0.24219-0.63281v-11.227l-6.2383-6.5742c-0.15234-0.16016-0.23828-0.37109-0.23828-0.59375v-21.352h-10.656v21.352c0 0.22266-0.085938 0.43359-0.23828 0.59375l-6.2383 6.5742v11.227c0.007813 0.23438-0.078125 0.46484-0.24219 0.63281-0.16406 0.16797-0.38672 0.26172-0.62109 0.26172s-0.45703-0.09375-0.62109-0.26172c-0.16406-0.16797-0.25-0.39844-0.24219-0.63281v-11.566c0-0.24219 0.10156-0.47656 0.28125-0.64062l6.1992-6.5312v-21.008h-21.066c-1.5352 0-3.0078 0.60938-4.0938 1.6953-1.0859 1.0859-1.6953 2.5586-1.6953 4.0938v39.051c-0.003907 1.5234 0.60156 2.9844 1.6836 4.0586 1.0938 1.0781 2.5703 1.6797 4.1055 1.6719h2.3164l0.003906-10.473-3.918-4.0273h-0.003906c-0.15625-0.16016-0.24219-0.375-0.24219-0.60156v-15.5c0.015625-0.46484 0.39844-0.83203 0.86328-0.83203 0.46484 0 0.84766 0.36719 0.86328 0.83203v15.152l2.4375 2.5v-9.6758c0-0.26563 0.125-0.51953 0.33984-0.68359l3.9414-3.7305v-9.1914c-0.57812-0.16016-1.1016-0.46875-1.5273-0.89062-1.3398-1.332-1.3633-3.4922-0.054688-4.8516l0.050782-0.054687c0.64062-0.6875 1.5352-1.0859 2.4727-1.1016 0.94141-0.019531 1.8516 0.34766 2.5156 1.0117 0.66406 0.66797 1.0312 1.5742 1.0156 2.5156-0.019531 0.9375-0.41797 1.832-1.1055 2.4727-0.44922 0.45312-1.0195 0.77344-1.6406 0.92188v9.5352c0 0.23438-0.097656 0.46094-0.26953 0.62109l-4.0078 3.7891v22.266h18.52v-5.7344c0-0.23047 0.09375-0.44922 0.25391-0.60938l4.4922-4.4922v-7.4648c-0.57813-0.16016-1.1055-0.46875-1.5312-0.89062-1.3594-1.3398-1.375-3.5273-0.042969-4.8906 1.3359-1.3633 3.5195-1.3906 4.8867-0.0625l0.054687 0.050782c0.65234 0.64844 1.0195 1.5312 1.0195 2.4492 0 0.91797-0.36719 1.8008-1.0195 2.4492l-0.003906 0.007813c-0.45312 0.45312-1.0195 0.76953-1.6445 0.91797v7.4414l4.3828 4.4922c0.15625 0.16016 0.24609 0.375 0.24609 0.60156v5.7344h18.52v-22.266l-3.8984-3.793c-0.16797-0.16406-0.26172-0.38672-0.26172-0.61719v-9.5586c-0.55469-0.15234-1.0625-0.44141-1.4766-0.84375l-0.054687-0.050781v0.003906c-1.2695-1.3672-1.2344-3.4961 0.085937-4.8164 1.3203-1.3203 3.4492-1.3555 4.8164-0.082032 1.3359 1.332 1.3555 3.4883 0.046876 4.8477l-0.050782 0.054688v-0.003906c-0.45312 0.45312-1.0234 0.77344-1.6445 0.92188v9.1641l3.8555 3.7461v0.003906c0.19531 0.16406 0.30859 0.40625 0.30859 0.66016v9.6797l2.4375-2.5v-15.16c0-0.47656 0.38672-0.86328 0.86328-0.86328 0.47656 0 0.86328 0.38672 0.86328 0.86328v15.5c0 0.22266-0.085938 0.4375-0.24219 0.59766l-3.9219 4.0352v10.477h2.4922c1.5469 0 3.0352-0.60938 4.1328-1.7031 1.0977-1.0742 1.7148-2.5469 1.7148-4.0859zm-0.47656-5.3125c1.4102 1.4102 2.2031 3.3203 2.1992 5.3125v38.992c0 1.9961-0.80078 3.9062-2.2227 5.3047-1.4219 1.4141-3.3438 2.2109-5.3477 2.2109h-56.406 0.003906c-1.9922 0.003906-3.9023-0.77734-5.3203-2.1797-1.4102-1.3945-2.2031-3.2969-2.1992-5.2773v-39.051c0.003906-3.9688 3.0938-7.2539 7.0586-7.5v-7.25c-0.011719-10.246 5.4414-19.723 14.312-24.859 8.8672-5.1367 19.801-5.1484 28.684-0.035156 8.8828 5.1133 14.359 14.574 14.375 24.824v7.3203c1.832 0.10937 3.5625 0.88672 4.8555 2.1875zm-60.508-2.1992h8.3398l0.003906-7.2383c-0.015625-6.6523 3.5234-12.805 9.2773-16.141 5.7539-3.3359 12.852-3.3477 18.621-0.035156 5.7656 3.3164 9.3242 9.457 9.3359 16.109v7.3008h8.3477v-7.3047c-0.011719-9.6328-5.1641-18.531-13.512-23.336-8.3516-4.8047-18.629-4.793-26.969 0.035156-8.3359 4.8281-13.461 13.738-13.449 23.371v7.2344zm10.066 0h33.797v-7.3008c-0.011719-6.0391-3.2422-11.609-8.4766-14.617s-11.68-2.9961-16.902 0.03125c-5.2227 3.0312-8.4336 8.6172-8.418 14.652zm12.957 52.301 0.003906-5.3828 3.875-3.875 3.7695 3.8633v5.3867zm5.6797-21.648c0.003907 0.46094-0.17969 0.90625-0.50391 1.2305-0.67969 0.67969-1.7812 0.67969-2.4609 0-0.33203-0.32031-0.52344-0.76172-0.52734-1.2227-0.007813-0.46484 0.16797-0.91016 0.49219-1.2422 0.66797-0.6875 1.7734-0.70313 2.4609-0.035157l0.035156 0.035157c0.32812 0.32812 0.51172 0.76953 0.51172 1.2344zm20.711-17.934c0.003906 0.44531-0.16797 0.875-0.47266 1.1992l-0.035156 0.035156c-0.66797 0.66406-1.7422 0.67969-2.4258 0.039062l-0.035156-0.035156v-0.003906c-0.68359-0.67969-0.68359-1.7812-0.003907-2.4609 0.67969-0.67969 1.7812-0.68359 2.4648-0.003906 0.32422 0.32812 0.50781 0.76953 0.50781 1.2305zm-41.422 0h0.003906c0 0.46094-0.18359 0.90625-0.51172 1.2305-0.67188 0.67578-1.7617 0.68359-2.4453 0.019531-0.6875-0.66406-0.70703-1.7539-0.054688-2.4492l0.035157-0.035156 0.003906 0.003906c0.49609-0.5 1.2461-0.64844 1.8984-0.37891 0.65234 0.26953 1.0742 0.90625 1.0742 1.6094z" fill-rule="evenodd" fill="#ff9000" stroke-width="0.5" stroke="#ff9000"></path></svg> 