<svg xmlns="http://www.w3.org/2000/svg" viewBox="0 0 100 100" fill-rule="evenodd"><rect x="0" y="0" width="100" height="100" fill="#ff8900"></rect><g class="t-group-origins" style="transform-origin:center;transform:scale(0.79);"><path d="M30.6022 44.3764C30.7827 44.4556 30.9457 44.5696 31.082 44.712C31.2185 44.854 31.3257 45.0215 31.3975 45.205C31.4693 45.3884 31.5042 45.5842 31.5003 45.7812C31.4964 45.9781 31.4537 46.1724 31.3748 46.3529C31.2958 46.5333 31.182 46.6965 31.04 46.833L18.54 58.833C18.25 59.112 17.875 59.251 17.501 59.251C17.127 59.251 16.752 59.112 16.462 58.833L3.962 46.833C3.67503 46.5574 3.50929 46.1791 3.50122 45.7814C3.49316 45.3836 3.64344 44.9989 3.919 44.712C4.19456 44.425 4.57283 44.2593 4.97059 44.2512C5.36836 44.2431 5.75303 44.3934 6.04 44.669L15.297 53.556C15.103 52.072 15.001 50.573 15.001 49.068C15.001 30.146 30.397 14.751 49.323 14.751C58.473 14.751 67.081 18.31 73.56 24.77C73.826 25.0541 73.9713 25.4305 73.9651 25.8197C73.9589 26.2088 73.8018 26.5804 73.5269 26.856C73.252 27.1315 72.8808 27.2895 72.4916 27.2966C72.1025 27.3037 71.7258 27.1593 71.441 26.894C65.529 20.998 57.674 17.751 49.323 17.751C32.052 17.751 18.001 31.8 18.001 49.068C18.0028 50.9569 18.1741 52.8418 18.513 54.7L28.961 44.669C29.103 44.5323 29.2705 44.4249 29.454 44.3531C29.6375 44.2813 29.8334 44.2463 30.0304 44.2503C30.2275 44.2543 30.4218 44.2972 30.6022 44.3764ZM67.8879 53.1972C68.0242 53.3395 68.1872 53.4536 68.3677 53.5328C68.5481 53.612 68.7424 53.6548 68.9395 53.6588C69.1365 53.6628 69.3324 53.6279 69.5159 53.5561C69.6994 53.4842 69.8669 53.3769 70.0089 53.2402L80.4569 43.2092C80.7958 45.0674 80.9671 46.9523 80.9689 48.8412C80.9689 66.1092 66.9179 80.1582 49.6469 80.1582C41.2959 80.1582 33.4409 76.9112 27.5289 71.0152C27.2441 70.7498 26.8674 70.6055 26.4782 70.6126C26.0891 70.6197 25.7179 70.7777 25.443 71.0532C25.1681 71.3288 25.011 71.7003 25.0048 72.0895C24.9986 72.4787 25.1439 72.8551 25.4099 73.1392C31.8889 79.5992 40.4969 83.1582 49.6469 83.1582C68.5729 83.1582 83.9689 67.7632 83.9689 48.8412C83.9689 47.3362 83.8669 45.8372 83.6729 44.3532L92.9299 53.2402C93.2169 53.5158 93.6015 53.666 93.9993 53.658C94.3971 53.6499 94.7753 53.4842 95.0509 53.1972C95.3264 52.9102 95.4767 52.5256 95.4687 52.1278C95.4606 51.73 95.2948 51.3518 95.0079 51.0762L82.5079 39.0762C82.2179 38.7972 81.8429 38.6582 81.4689 38.6582C81.0949 38.6582 80.7199 38.7972 80.4299 39.0762L67.9299 51.0762C67.7878 51.2127 67.6741 51.3758 67.5951 51.5563C67.5161 51.7368 67.4735 51.931 67.4696 52.128C67.4657 52.325 67.5006 52.5208 67.5724 52.7042C67.6442 52.8877 67.7514 53.0552 67.8879 53.1972Z" stroke-width="0" stroke="#ffffff" fill="#ffffff" stroke-width-old="0"></path></g></svg>
