<svg xmlns="http://www.w3.org/2000/svg" viewBox="0 0 100 100" fill-rule="evenodd"><rect x="0" y="0" width="100" height="100" fill="#ff8900"></rect><g class="t-group-origins" style="transform-origin:center;transform:scale(0.84);"><path d="M71.762 25.253v-12.1a1.5 1.5 0 0 0-1.5-1.5H30.145a1.5 1.5 0 0 0-1.5 1.5v11.976c-8.076 2.503-13.269 9.018-13.269 17.548v44.172a1.5 1.5 0 0 0 1.5 1.5h66.247a1.5 1.5 0 0 0 1.5-1.5V42.677c0-8.385-5.016-14.829-12.861-17.424zm-40.117-10.6h37.117v9.264H31.645v-9.264zm49.978 70.696H18.376V42.677c0-10.83 9.009-15.678 17.938-15.678h27.364c8.933 0 17.945 4.848 17.945 15.678v42.672z" stroke-width="0" stroke="#ffffff" fill="#ffffff" stroke-width-old="0"></path><path d="M50.202 38.505c-10.361 0-18.79 8.429-18.79 18.79 0 10.361 8.429 18.79 18.79 18.79 10.361 0 18.79-8.429 18.79-18.79 0-10.361-8.429-18.79-18.79-18.79zm0 34.58c-8.707 0-15.79-7.083-15.79-15.79 0-8.707 7.083-15.79 15.79-15.79 8.707 0 15.79 7.083 15.79 15.79 0 8.707-7.083 15.79-15.79 15.79z" stroke-width="0" stroke="#ffffff" fill="#ffffff" stroke-width-old="0"></path><path d="M55.57 45.131a1.501 1.501 0 0 0-2.121 0L42.861 55.725a1.5 1.5 0 0 0 1.061 2.561h6.967l-8.028 8.029a1.5 1.5 0 1 0 2.122 2.121l10.588-10.59a1.499 1.499 0 0 0-1.061-2.561h-6.968l8.028-8.033a1.5 1.5 0 0 0 0-2.121z" stroke-width="0" stroke="#ffffff" fill="#ffffff" stroke-width-old="0"></path></g></svg>
