<?xml version="1.0" encoding="UTF-8"?> <svg xmlns="http://www.w3.org/2000/svg" width="117" height="97" viewBox="0 0 117 97" fill="none"><path fill-rule="evenodd" clip-rule="evenodd" d="M8.00337 41.5513C39.2634 27.9313 60.1067 18.9513 70.5334 14.6113C100.313 2.23134 106.533 0.0813398 110.533 0.00133978C112.017 -0.0274935 113.472 0.409697 114.693 1.25134C115.551 1.99057 116.097 3.02636 116.223 4.15134C116.439 5.55043 116.499 6.96902 116.403 8.38134C114.793 25.3813 107.803 66.4713 104.253 85.4613C102.753 93.4613 99.7934 96.1913 96.9234 96.4613C90.7034 97.0313 85.9234 92.3413 79.9234 88.3913C70.4834 82.2013 65.1534 78.3913 55.9934 72.3113C45.4034 65.3113 52.2734 61.5013 58.3034 55.2413C59.8834 53.6013 87.3034 28.6413 87.8434 26.3813C87.9146 26.0476 87.9064 25.7018 87.8195 25.3718C87.7327 25.0418 87.5696 24.7368 87.3434 24.4813C87.0151 24.2762 86.6436 24.1504 86.2582 24.1139C85.8728 24.0775 85.4843 24.1314 85.1234 24.2713C84.1834 24.478 69.1101 34.4413 39.9034 54.1613C35.6234 57.1013 31.7467 58.5347 28.2734 58.4613C24.4434 58.3713 17.0833 56.2913 11.6033 54.4613C4.89334 52.2813 -0.396612 51.1313 0.023388 47.4613C0.270055 45.5413 2.93004 43.5713 8.00337 41.5513Z" fill="white"></path></svg> 