<svg xmlns="http://www.w3.org/2000/svg" viewBox="0 0 100 100" fill-rule="evenodd"><g class="t-group-origins"><path d="M82.5 41.4c-6-5.1-13.8-8.2-22.3-8.2-2.6 0-5.1.3-7.5.8-1.3-6.7-6.4-11.6-14.9-14.1-6.4-1.9-12.5-1.7-12.7-1.7-.8 0-1.4.7-1.5 1.5 0 .8.6 1.5 1.4 1.5 5.3.3 6.7 7 7.1 9 .8 5-.4 8.9-1.3 9.2-.9.4-2 .2-3.1-.3-2.4-1.2-5.6-4.7-7.4-11.1C15.6 12.5 3.7 13.6 3.5 13.6c-.7.1-1.3.7-1.3 1.4s.4 1.4 1.2 1.6c6.3 1.4 5 11.9 3.9 21.2-.4 3.5-.8 6.8-.8 9.5.4 23 16.5 25.7 19.7 26 1.5 9.2 6.7 17.5 14.6 22.9.2.2.5.3.8.3h37.2c.4 0 .8-.2 1.1-.5 9.2-6.5 14.7-17 14.7-28.3 0-9.4-3.8-18-10-24.3M9.5 47.2c0-2.4.3-5.7.7-9C11 31.2 12 23 9.4 18c2.8 1.5 6 4.6 7.8 11 1.8 6.2 5.2 11 9 12.9 1.9.9 3.8 1.1 5.5.4 3.1-1.2 4-7.3 3.2-12.5-.5-3.3-1.7-6.1-3.2-8 6.7 1 16.3 4.1 18 13.1-13.9 4.4-24 17.5-24 32.9 0 .9 0 1.7.1 2.6-3.6-.6-15.9-3.6-16.3-23.2zm68.8 46.2H42.1C33.9 87.6 29 78.3 28.7 68.3h5.9c.8 0 1.5-.7 1.5-1.5s-.7-1.5-1.5-1.5h-5.8c.5-7 3.4-13.4 7.8-18.4l4.4 4.4c.3.3.7.4 1.1.4s.8-.1 1.1-.4c.6-.6.6-1.5 0-2.1l-4.5-4.5c5.3-5 12.3-8.1 20-8.5v6.4c0 .8.7 1.5 1.5 1.5s1.5-.7 1.5-1.5v-6.4c7.1.3 13.5 3 18.6 7.3L74.8 49c-.6.6-.6 1.5 0 2.1.3.3.7.4 1.1.4s.8-.1 1.1-.4l5.6-5.6c4.4 4.4 7.5 10.2 8.6 16.6 0 .1.3 3 .3 3.1h-5.7c-.8 0-1.5.7-1.5 1.5s.7 1.5 1.5 1.5h5.9c.1.8 0-1.3 0-.5 0 10.2-5 19.8-13.4 25.7z" stroke-width="1" stroke="#ff9000" fill="#ff9000" stroke-width-old="0"></path><path d="M80.4 65.3H67.1c-.7-3.2-3.5-5.5-6.9-5.5-3.9 0-7 3.2-7 7s3.2 7 7 7c3.4 0 6.2-2.4 6.9-5.5h13.4c.8 0 1.5-.7 1.5-1.5s-.8-1.5-1.6-1.5zm-20.2 5.5c-2.2 0-4-1.8-4-4s1.8-4 4-4 4.1 1.8 4.1 4-1.9 4-4.1 4zm-4.4-49c2.7 2 5.3 3.9 6 5.8.2.6.8.9 1.4.9.6 0 1.1-.3 1.4-.9 1.6-3.4 2.6-11.2-4.8-16.1-2-1.3-3.9-2.4-5.5-3.3-2.7-1.5-4.9-2.7-6.5-4.6-.4-.4-1-.6-1.6-.5-.6.2-1 .6-1.1 1.2 0 .3-.9 6.8 5.2 12.9 1.6 1.8 3.6 3.2 5.5 4.6zm-3-10.9c1.6.9 3.4 1.9 5.3 3.2 4.4 2.9 4.8 6.9 4.5 9.5-1.4-1.4-3.2-2.8-5-4.1-1.8-1.3-3.7-2.7-5.1-4.2-2.5-2.5-3.6-5-4.1-7 1.3.9 2.8 1.7 4.4 2.6z" stroke-width="1" stroke="#ff9000" fill="#ff9000" stroke-width-old="0"></path></g></svg>
