<?xml version="1.0" encoding="UTF-8"?> <svg xmlns="http://www.w3.org/2000/svg" width="107" height="108" viewBox="0 0 107 108" fill="none"><path d="M0 107.28L7.55005 79.7201C1.70905 69.5778 -0.622949 57.7918 0.915588 46.1894C2.45413 34.5869 7.7772 23.8161 16.0597 15.5466C24.3422 7.27711 35.1214 1.97092 46.7263 0.45063C58.3311 -1.06966 70.1134 1.28085 80.2465 7.13779C90.3796 12.9947 98.2976 22.0309 102.773 32.8455C107.248 43.6602 108.031 55.6491 104.999 66.9537C101.968 78.2583 95.2921 88.2472 86.0064 95.3718C76.7207 102.496 65.344 106.359 53.64 106.36C44.7619 106.355 36.0264 104.127 28.23 99.8801L0 107.28ZM29.5 90.2801L31.1201 91.2801C37.9323 95.3143 45.7029 97.4452 53.6201 97.4501C63.4242 97.452 72.951 94.1957 80.7028 88.193C88.4545 82.1903 93.9916 73.7817 96.4435 64.2891C98.8955 54.7965 98.1232 44.7582 94.2482 35.7523C90.3731 26.7464 83.615 19.2837 75.0363 14.5374C66.4576 9.79103 56.5448 8.03022 46.8563 9.53176C37.1678 11.0333 28.2531 15.7121 21.5135 22.8325C14.7739 29.9529 10.5918 39.1111 9.62451 48.8675C8.65726 58.6238 10.9598 68.425 16.17 76.7301L17.17 78.4001L12.7 94.7101L29.5 90.2801Z" fill="white"></path><path fill-rule="evenodd" clip-rule="evenodd" d="M80.4305 65.8201C80.1005 65.2601 79.2104 64.9301 77.8804 64.2701C76.5504 63.6101 70.0205 60.3901 68.8005 59.9401C67.5805 59.4901 66.7005 59.2801 65.8005 60.6101C64.9005 61.9401 62.3705 64.9301 61.6005 65.8201C60.8305 66.7101 60.0405 66.8201 58.7205 66.1501C54.8226 64.5848 51.2259 62.3551 48.0904 59.5601C45.185 56.8726 42.6946 53.7688 40.7004 50.3501C39.9204 49.0201 40.6104 48.3501 41.2804 47.6401C41.9504 46.9301 42.6105 46.0801 43.2805 45.3101C43.8303 44.6394 44.2784 43.8913 44.6105 43.0901C44.7855 42.7227 44.867 42.3178 44.8478 41.9113C44.8286 41.5048 44.7093 41.1094 44.5004 40.7601C44.1704 40.1001 41.5004 33.5601 40.4004 30.9001C39.3004 28.2401 38.2304 28.6601 37.4004 28.6101C36.5704 28.5601 35.7405 28.6101 34.8605 28.6101C34.177 28.6214 33.5035 28.7759 32.8834 29.0635C32.2633 29.3511 31.7104 29.7656 31.2604 30.2801C29.7691 31.6942 28.5862 33.4013 27.786 35.2942C26.9858 37.1872 26.5856 39.2251 26.6105 41.2801C26.6105 47.8201 31.3705 54.1401 32.0405 55.0301C32.7105 55.9201 41.4105 69.3401 54.7405 75.0901C57.2154 76.158 59.7456 77.0927 62.3204 77.8901C65.0316 78.7134 67.8971 78.8949 70.6904 78.4201C73.2404 78.0401 78.5504 75.2001 79.6904 72.1001C80.8304 69.0001 80.7605 66.3701 80.4305 65.8201Z" fill="white"></path></svg> 